:SAMPLES-PER-SECOND 30
:FULLY-SPECIFIED
:DEGREES
685
root  -25.8031 33.8116 30.8812 178.083 -47.0322 -170.997
RightUpLeg  -9.92346 -28.7795 6.33522
RightLeg  20.2052 -15.5418 -4.5402
RightFoot  -2.43467 0.00545946 0.915283
RightToes  -19.4765 -0.0785595 -0.1726
Spine  0.407661 0.36581 0.787887
Spine1  0.725248 0.711049 2.13918
HEad  -51.9744 -15.2014 -7.83263
LeftShoulder1  -1.94126e-019 -3.10601e-018 -2.51263e-017
LeftArm  -21.2173 24.9113 -76.8498
LeftForeArm  14.9393 -38.3475 -7.91897
LeftHand  -0.226303 -0.326302 4.66794
RightShoulder  -4.96962e-017 0 -2.36833e-017
RightArm  -18.4995 -20.3978 77.6546
RightForeArm  58.4866 12.3038 1.44766
RightHand  -0.301303 -0.8727 -7.68956
LeftUpLeg  -17.1536 16.6882 8.70348
LeftLeg  54.6201 10.0897 12.171
LeftFoot  1.66117 -0.00598335 0.574286
LeftToes  -33.8808 2.32378e-006 -5.43956e-008
686
root  -26.2624 33.8842 30.7924 178.722 -45.7623 -171.63
RightUpLeg  -8.50208 -27.718 5.23801
RightLeg  18.5189 -14.8972 -3.89136
RightFoot  -1.81204 0.000804768 0.715239
RightToes  -19.6992 -0.0797881 -0.174399
Spine  0.469006 0.472001 0.641538
Spine1  0.846014 0.952861 1.85437
HEad  -52.6348 -14.929 -7.41898
LeftShoulder1  -1.94126e-019 -3.10601e-018 -2.51263e-017
LeftArm  -24.6233 26.8748 -77.4158
LeftForeArm  10.5864 -39.7737 -8.62942
LeftHand  -0.137143 1.52096 3.93437
RightShoulder  -4.96962e-017 0 -2.36833e-017
RightArm  -14.6139 -20.7677 77.4742
RightForeArm  53.0466 14.9554 1.19228
RightHand  -0.262755 -1.36543 -7.45173
LeftUpLeg  -19.176 15.7943 8.98304
LeftLeg  56.8472 13.122 16.8508
LeftFoot  -0.409179 -0.000751652 -0.0489717
LeftToes  -26.4293 2.32378e-006 -5.43956e-008
687
root  -26.74 33.9728 30.8461 -179.833 -44.3384 -173.107
RightUpLeg  -7.9327 -27.3103 3.62855
RightLeg  17.0867 -14.4448 -3.39739
RightFoot  -0.524827 -0.00180922 0.365711
RightToes  -22.3146 -0.0947339 -0.195167
Spine  0.620022 0.600437 0.235216
Spine1  1.14355 1.24409 1.06148
HEad  -54.1791 -14.6374 -6.49661
LeftShoulder1  -1.94126e-019 -3.10601e-018 -2.51263e-017
LeftArm  -27.0516 28.3237 -77.7611
LeftForeArm  3.52929 -43.9035 -10.5166
LeftHand  0.0179624 6.05112 7.40881
RightShoulder  -4.96962e-017 0 -2.36833e-017
RightArm  -12.6189 -21.1622 77.6132
RightForeArm  49.5135 18.33 1.50903
RightHand  -0.208457 -2.21095 -7.30718
LeftUpLeg  -21.1077 14.0795 8.62978
LeftLeg  56.269 15.2145 18.9263
LeftFoot  -0.0221565 -9.63283e-006 0.110748
LeftToes  -22.195 2.32378e-006 -5.43956e-008
688
root  -27.2312 34.0728 30.954 -178.895 -43.2421 -174.014
RightUpLeg  -7.0274 -25.7177 2.32904
RightLeg  15.4462 -14.6041 -3.00053
RightFoot  0.669377 0.00262446 0.0603826
RightToes  -22.93 -0.0983875 -0.199953
Spine  0.808971 0.82884 -0.0853879
Spine1  1.54063 1.70807 0.485688
HEad  -54.8846 -15.1535 -5.71881
LeftShoulder1  -1.94126e-019 -3.10601e-018 -2.51263e-017
LeftArm  -26.4043 28.4076 -77.9322
LeftForeArm  1.51223 -50.2564 -13.4072
LeftHand  0.363388 9.45451 11.2389
RightShoulder  -4.96962e-017 0 -2.36833e-017
RightArm  -11.6475 -22.2435 77.7605
RightForeArm  45.6108 22.1986 2.39067
RightHand  -0.177841 -2.68828 -7.18656
LeftUpLeg  -22.7187 11.2256 8.96274
LeftLeg  52.6567 15.4853 17.0503
LeftFoot  2.31938 -0.01927 1.1135
LeftToes  -24.0118 2.32378e-006 -5.43956e-008
689
root  -27.8039 34.1387 31.1438 -177.77 -43.0315 -174.989
RightUpLeg  -6.59598 -26.1335 0.783326
RightLeg  14.273 -14.1353 -2.60926
RightFoot  1.75471 0.0120274 -0.208927
RightToes  -24.0436 -0.105128 -0.208512
Spine  0.982237 0.915729 -0.439843
Spine1  1.89912 1.88629 -0.191308
HEad  -54.6352 -16.1068 -5.12215
LeftShoulder1  -1.94126e-019 -3.10601e-018 -2.51263e-017
LeftArm  -25.3775 26.6685 -77.7683
LeftForeArm  3.37514 -57.0498 -17.3232
LeftHand  0.471784 9.99344 12.6121
RightShoulder  -4.96962e-017 0 -2.36833e-017
RightArm  -11.1373 -24.0741 78.2712
RightForeArm  41.9886 27.9141 3.71586
RightHand  -0.176418 -2.90314 -7.70861
LeftUpLeg  -24.3165 6.78183 9.34676
LeftLeg  46.8308 15.0296 13.6549
LeftFoot  4.34736 -0.0599082 1.73984
LeftToes  -24.9087 2.32378e-006 -5.43956e-008
690
root  -28.3879 34.1252 31.3713 -176.844 -42.9483 -175.529
RightUpLeg  -6.60944 -26.0164 -0.414329
RightLeg  13.7153 -14.5057 -2.53185
RightFoot  2.81025 0.0266236 -0.491118
RightToes  -27.9109 -0.129803 -0.237187
Spine  1.10086 0.948613 -0.611905
Spine1  2.14193 1.98404 -0.553225
HEad  -54.1993 -16.858 -5.00967
LeftShoulder1  -1.94126e-019 -3.10601e-018 -2.51263e-017
LeftArm  -23.8865 23.622 -77.3983
LeftForeArm  8.42754 -63.4784 -22.6301
LeftHand  0.296529 8.51786 11.9722
RightShoulder  -4.96962e-017 0 -2.36833e-017
RightArm  -11.3705 -25.4845 78.7835
RightForeArm  40.974 32.4934 4.79077
RightHand  -0.222699 -1.59138 -6.62988
LeftUpLeg  -25.7788 2.25804 10.427
LeftLeg  39.8436 14.9196 10.6506
LeftFoot  4.38215 -0.0545562 1.58743
LeftToes  -25.2896 2.32378e-006 -5.43956e-008
691
root  -29.0328 34.0842 31.6281 -175.677 -42.8921 -175.948
RightUpLeg  -7.30089 -26.1179 -1.57054
RightLeg  13.9434 -14.1948 -2.53651
RightFoot  3.2894 0.032999 -0.592985
RightToes  -27.4033 -0.126455 -0.233519
Spine  1.08471 0.784093 -0.708924
Spine1  2.11985 1.6937 -0.778225
HEad  -53.9087 -17.2011 -5.39379
LeftShoulder1  -1.94126e-019 -3.10601e-018 -2.51263e-017
LeftArm  -21.966 19.611 -76.7792
LeftForeArm  16.4216 -68.5072 -28.8325
LeftHand  0.0379672 6.10563 9.67787
RightShoulder  -4.96962e-017 0 -2.36833e-017
RightArm  -10.4196 -25.8106 79.1451
RightForeArm  42.414 35.0402 5.32962
RightHand  -0.229367 -0.741708 -5.67792
LeftUpLeg  -27.2069 -2.23727 11.9042
LeftLeg  31.9146 14.2604 7.52963
LeftFoot  3.42704 -0.0289748 1.1301
LeftToes  -24.9259 2.32378e-006 -5.43956e-008
692
root  -29.7784 33.9693 31.8758 -174.58 -42.5437 -176.585
RightUpLeg  -8.19667 -25.6611 -3.14971
RightLeg  15.3706 -14.1408 -2.8884
RightFoot  3.42707 0.0362096 -0.621132
RightToes  -29.3577 -0.139523 -0.247477
Spine  1.08061 0.529094 -0.873472
Spine1  2.12073 1.22168 -1.13793
HEad  -53.8515 -17.1966 -5.83555
LeftShoulder1  -1.94126e-019 -3.10601e-018 -2.51263e-017
LeftArm  -19.166 15.1588 -75.505
LeftForeArm  27.3331 -72.0869 -35.0656
LeftHand  -0.162038 3.6139 9.81558
RightShoulder  -4.96962e-017 0 -2.36833e-017
RightArm  -9.09362 -25.3424 79.5647
RightForeArm  46.0568 35.9277 5.36056
RightHand  -0.275092 0.250134 -5.72033
LeftUpLeg  -28.4939 -6.98302 13.4293
LeftLeg  25.0489 11.0409 4.28125
LeftFoot  4.38351 -0.0343963 1.06027
LeftToes  -30.6872 2.32378e-006 -5.43956e-008
693
root  -30.6458 33.7946 32.1387 -173.992 -41.815 -176.844
RightUpLeg  -9.12275 -25.2091 -4.84491
RightLeg  17.6396 -13.3206 -3.27359
RightFoot  3.34005 0.0333006 -0.550993
RightToes  -30.8107 -0.149543 -0.257561
Spine  1.09434 0.306175 -0.987142
Spine1  2.16164 0.819748 -1.40902
HEad  -53.8753 -17.1571 -5.99149
LeftShoulder1  -1.94126e-019 -3.10601e-018 -2.51263e-017
LeftArm  -16.3736 10.0798 -73.9767
LeftForeArm  36.0486 -73.8011 -38.6293
LeftHand  -0.217556 1.62659 6.55244
RightShoulder  -4.96962e-017 0 -2.36833e-017
RightArm  -7.50945 -24.2276 79.7502
RightForeArm  48.4524 35.0602 5.02414
RightHand  -0.308507 0.321225 -6.33753
LeftUpLeg  -29.7788 -10.8366 14.3763
LeftLeg  22.1277 6.06669 2.01568
LeftFoot  10.2297 -0.101351 1.29379
LeftToes  -39.7003 2.32378e-006 -5.43956e-008
694
root  -31.6458 33.5622 32.4019 -174.145 -39.731 -177.255
RightUpLeg  -9.61947 -24.3826 -7.2108
RightLeg  20.1428 -11.8601 -3.47316
RightFoot  3.4015 0.0317087 -0.483977
RightToes  -32.4393 -0.161074 -0.268557
Spine  1.33984 0.38924 -1.1228
Spine1  2.65037 1.00322 -1.69001
HEad  -53.7574 -17.021 -6.66944
LeftShoulder1  -1.94126e-019 -3.10601e-018 -2.51263e-017
LeftArm  -13.5199 4.8756 -72.6113
LeftForeArm  38.723 -73.5808 -37.1202
LeftHand  -0.374821 0.0681534 8.23518
RightShoulder  -4.96962e-017 0 -2.36833e-017
RightArm  -6.91676 -22.3805 79.8977
RightForeArm  49.6536 32.676 4.40377
RightHand  -0.334791 0.0442936 -7.19657
LeftUpLeg  -30.3612 -8.81694 12.2477
LeftLeg  26.3062 4.02879 1.67326
LeftFoot  9.64182 -0.061772 0.893931
LeftToes  -36.1178 2.32378e-006 -5.43956e-008
695
root  -32.6575 33.3535 32.7534 -174.184 -37.5451 -177.837
RightUpLeg  -10.0594 -24.1221 -9.77381
RightLeg  21.7593 -9.86664 -3.20145
RightFoot  4.24882 0.0409446 -0.52574
RightToes  -34.4503 -0.175736 -0.281676
Spine  1.60821 0.499514 -1.25769
Spine1  3.18211 1.23396 -1.96182
HEad  -53.6811 -16.995 -7.70789
LeftShoulder1  -1.94126e-019 -3.10601e-018 -2.51263e-017
LeftArm  -11.5983 -0.650124 -71.8507
LeftForeArm  35.1197 -70.9435 -30.5056
LeftHand  -0.407534 0.085078 8.97914
RightShoulder  -4.96962e-017 0 -2.36833e-017
RightArm  -8.33933 -20.4848 80.1322
RightForeArm  49.945 29.8631 3.76556
RightHand  -0.341919 -0.132621 -7.57913
LeftUpLeg  -31.479 -5.49883 9.4034
LeftLeg  31.6832 3.16379 1.67612
LeftFoot  6.28936 -0.0218245 0.558763
LeftToes  -31.6672 2.32378e-006 -5.43956e-008
